<?xml version="1.0" encoding="utf-8"?>
<!-- Svg Vector Icons : http://www.onlinewebfonts.com/icon -->
<!DOCTYPE svg PUBLIC "-//W3C//DTD SVG 1.1//EN" "http://www.w3.org/Graphics/SVG/1.1/DTD/svg11.dtd">
<svg version="1.1" xmlns="http://www.w3.org/2000/svg" xmlns:xlink="http://www.w3.org/1999/xlink" x="0px" y="0px" viewBox="0 0 1000 1000" enable-background="new 0 0 1000 1000" xml:space="preserve">
<metadata> Svg Vector Icons : http://www.onlinewebfonts.com/icon </metadata>
<g><g><g><path d="M499.8,58.5C229.7,59.8,10,280.5,10,550.6c0,82,20.6,162.9,59.4,234.5V655c0-24,8.5-46.2,23.5-65.3c-1.2-13-1.9-26-1.9-39.1c0-225.6,183.5-409.9,408.7-411c225.6,1,409.1,185.4,409.1,411c0,14.5-0.8,29-2.3,43.3c13,18.1,20.3,38.9,20.3,61.1v136.7c41.2-73.3,63.1-156.6,63.1-241.1C990,280.5,770.3,59.8,499.8,58.5z"/><path d="M99.6,634c-2.1,6.8-3.2,13.8-3.2,21v125.4v58.4c0,56.7,67.5,102.7,150.9,102.7h63.5V552.3h-63.5C174.6,552.3,113.9,587.4,99.6,634z"/><path d="M899.9,838.8v-60.4V655c0-4.4-0.5-8.8-1.3-13.1c-9.4-50.5-72.8-89.6-149.6-89.6h-63.5v389.1h63.5C832.4,941.5,899.9,895.5,899.9,838.8z"/></g></g><g></g><g></g><g></g><g></g><g></g><g></g><g></g><g></g><g></g><g></g><g></g><g></g><g></g><g></g><g></g></g>
</svg>